<svg viewBox="0 0 880 630" role="img" xmlns="http://www.w3.org/2000/svg" font-family="-apple-system, BlinkMacSystemFont, 'Segoe UI', Roboto, sans-serif">
  <title>How Argus indexes a block</title>
  <desc>A Cardano node streams blocks through CardanoIndexWorker into one ReducerGraphProcessor per root. The root and its dependents — nested (A then A1) and fan-out (B) — run in topological order into a single batched unit of work, which commits to PostgreSQL or MongoDB on batch size, delay, or tip-drain.</desc>
  <defs>
    <marker id="a" markerWidth="9" markerHeight="9" refX="6.5" refY="3.5" orient="auto"><path d="M0,0 L8,3.5 L0,7 Z" fill="#94a3b8"/></marker>
  </defs>
  <rect x="2" y="2" width="876" height="626" rx="16" fill="#ffffff" stroke="#e2e8f0" stroke-width="2"/>

  <text x="440" y="38" text-anchor="middle" font-size="21" font-weight="700" fill="#0f172a">How Argus indexes a block</text>
  <text x="440" y="60" text-anchor="middle" font-size="12.5" fill="#64748b">Argus 1.2 — one batched graph per root</text>

  <rect x="320" y="80" width="240" height="52" rx="11" fill="#f1f5f9" stroke="#64748b" stroke-width="1.4"/>
  <text x="440" y="102" text-anchor="middle" font-size="14" font-weight="700" fill="#334155">Cardano node</text>
  <text x="440" y="121" text-anchor="middle" font-size="11" fill="#64748b">N2C · N2N (pipelined) · U5C</text>
  <line x1="440" y1="132" x2="440" y2="153" stroke="#94a3b8" stroke-width="2" marker-end="url(#a)"/>

  <rect x="288" y="155" width="304" height="52" rx="11" fill="#f1f5f9" stroke="#64748b" stroke-width="1.4"/>
  <text x="440" y="177" text-anchor="middle" font-size="14" font-weight="700" fill="#334155">CardanoIndexWorker</text>
  <text x="440" y="196" text-anchor="middle" font-size="11" fill="#64748b">dependency graph · single-instance lock</text>
  <line x1="440" y1="207" x2="440" y2="228" stroke="#94a3b8" stroke-width="2" marker-end="url(#a)"/>

  <rect x="58" y="230" width="764" height="288" rx="15" fill="#faf5ff" stroke="#7c3aed" stroke-width="2"/>
  <text x="80" y="258" font-size="14" font-weight="700" fill="#6d28d9">ReducerGraphProcessor <tspan font-size="11.5" font-weight="400" fill="#a78bfa">· one per root</tspan></text>

  <path d="M188 322 C 222 322, 220 303, 250 303" fill="none" stroke="#c4b5fd" stroke-width="1.6"/>
  <path d="M188 336 C 222 336, 220 371, 250 371" fill="none" stroke="#c4b5fd" stroke-width="1.6"/>
  <line x1="366" y1="303" x2="398" y2="303" stroke="#c4b5fd" stroke-width="1.6"/>

  <rect x="80" y="308" width="108" height="42" rx="9" fill="#ffffff" stroke="#8b5cf6" stroke-width="1.3"/>
  <text x="134" y="328" text-anchor="middle" font-size="11.5" font-weight="700" fill="#5b21b6">Root</text>
  <text x="134" y="343" text-anchor="middle" font-size="9" fill="#a78bfa">no dependency</text>

  <rect x="250" y="284" width="116" height="38" rx="9" fill="#ffffff" stroke="#8b5cf6" stroke-width="1.3"/>
  <text x="308" y="302" text-anchor="middle" font-size="11" font-weight="700" fill="#5b21b6">Dependent A</text>
  <text x="308" y="315" text-anchor="middle" font-size="9" fill="#a78bfa">reads Root via .Local</text>

  <rect x="398" y="284" width="116" height="38" rx="9" fill="#ffffff" stroke="#8b5cf6" stroke-width="1.3"/>
  <text x="456" y="302" text-anchor="middle" font-size="11" font-weight="700" fill="#5b21b6">Dependent A1</text>
  <text x="456" y="315" text-anchor="middle" font-size="9" fill="#a78bfa">nested · reads A</text>

  <rect x="250" y="352" width="116" height="38" rx="9" fill="#ffffff" stroke="#8b5cf6" stroke-width="1.3"/>
  <text x="308" y="370" text-anchor="middle" font-size="11" font-weight="700" fill="#5b21b6">Dependent B</text>
  <text x="308" y="383" text-anchor="middle" font-size="9" fill="#a78bfa">fan-out · reads Root</text>

  <text x="560" y="300" font-size="11" fill="#7c3aed">topological order, parents first —</text>
  <text x="560" y="316" font-size="11" fill="#7c3aed">every reducer writes the</text>
  <text x="560" y="332" font-size="11" fill="#7c3aed">same unit of work ↓</text>

  <line x1="308" y1="398" x2="308" y2="416" stroke="#94a3b8" stroke-width="1.8" marker-end="url(#a)"/>

  <rect x="80" y="418" width="720" height="82" rx="11" fill="#ede9fe" stroke="#7c3aed" stroke-width="1.5"/>
  <text x="98" y="442" font-size="13" font-weight="700" fill="#5b21b6">Batched Unit of Work</text>
  <text x="98" y="460" font-size="10.5" fill="#6d28d9">one commit per batch · whole-graph atomic · a fault rolls back the whole batch</text>
  <rect x="98" y="469" width="98" height="23" rx="11.5" fill="#ffffff" stroke="#a78bfa" stroke-width="1.1"/>
  <text x="147" y="484" text-anchor="middle" font-size="10" fill="#6d28d9">500 blocks</text>
  <rect x="206" y="469" width="86" height="23" rx="11.5" fill="#ffffff" stroke="#a78bfa" stroke-width="1.1"/>
  <text x="249" y="484" text-anchor="middle" font-size="10" fill="#6d28d9">1000 ms</text>
  <rect x="302" y="469" width="86" height="23" rx="11.5" fill="#ffffff" stroke="#a78bfa" stroke-width="1.1"/>
  <text x="345" y="484" text-anchor="middle" font-size="10" fill="#6d28d9">tip drain</text>
  <text x="398" y="485" font-size="10" fill="#a78bfa">whichever fires first</text>

  <line x1="440" y1="518" x2="440" y2="540" stroke="#94a3b8" stroke-width="2" marker-end="url(#a)"/>

  <rect x="270" y="542" width="156" height="46" rx="11" fill="#f1f5f9" stroke="#64748b" stroke-width="1.4"/>
  <text x="348" y="563" text-anchor="middle" font-size="12.5" font-weight="700" fill="#334155">PostgreSQL</text>
  <text x="348" y="578" text-anchor="middle" font-size="9.5" fill="#64748b">EF Core</text>
  <rect x="454" y="542" width="156" height="46" rx="11" fill="#f1f5f9" stroke="#64748b" stroke-width="1.4"/>
  <text x="532" y="563" text-anchor="middle" font-size="12.5" font-weight="700" fill="#334155">MongoDB</text>
  <text x="532" y="578" text-anchor="middle" font-size="9.5" fill="#64748b">replica set</text>

  <text x="440" y="612" text-anchor="middle" font-size="10" fill="#94a3b8">Data + checkpoint commit together · restart resumes from the last checkpoint (idempotent replay).</text>
</svg>
